# xmcd
# 
# Track frame offsets:
#     182
#     20637
#     38207
#     63240
#     91115
#     119945
#     139815
#     159305
#     179700
#     208837
# 
# Disc length: 3192
# 
# Revision: 3
# Processed by: cddbd v1.5.2PL0 Copyright (c) Steve Scherf et al.
# Submitted via: BonkEnc v1.0.8
# 
DISCID=920c760a
DTITLE=Bluesiana Hot Sauce - Bluesiana Hot Sauce
DYEAR=1993
DGENRE=Blues
TTITLE0=My Last Meal 
TTITLE1=Brickyard Blues
TTITLE2=I Walk On Guilded Splinters
TTITLE3=Don't Mow Your Lawn
TTITLE4=You Don't Know Me
TTITLE5=Busted
TTITLE6=Blue Monk
TTITLE7=Ruby's Flowers
TTITLE8=At Last
TTITLE9=The Blue Lady
EXTD=Personnel: Allen Toussaint: piano, vocals - Toots Thielemans: harmonica - Michael Brecker, tenor sax - Will Calhoun, drums, vocals - Ray Anderson, trombone, vocals - Paul Griffin, Hammond B3 organ, piano - Eddie Gomez, bass - Joe Bandio, percussion - Phil Ha
EXTD=milton, guitar, Chuck St. Troy, vocals. Recorded at Sound on Sound Studios, New York City, August 23-24, 1993.
EXTT0=
EXTT1=
EXTT2=
EXTT3=
EXTT4=
EXTT5=
EXTT6=
EXTT7=
EXTT8=
EXTT9=
PLAYORDER=
